Coordinates
version=1
nRows=43
nColumns=12
inDegrees=yes

Units are S.I. units (second, meters, Newtons, ...)
Angles are in degrees

endheader
time	SC_y	SC_z	SC_x	AC_y	AC_z	AC_x	GH_y	GH_z	GH_yy	EL_x	PS_y
       0.0              -24.73          28.73          44.44          42.87          5.855          18.11          106.1          30.21          172.3          131.8          125.6
   0.01424              -24.73          28.73          44.44          42.87          5.851           18.1          106.1          30.22          172.3          131.8          125.6
   0.02848              -24.72          28.72          44.45          42.87          5.847           18.1          106.1          30.23          172.3          131.8          125.6
   0.04272              -24.72          28.72          44.45          42.87          5.843           18.1          106.1          30.23          172.3          131.8          125.6
   0.05696              -24.72          28.71          44.45          42.87          5.838          18.09          106.1          30.24          172.3          131.8          125.6
    0.0712              -24.72           28.7          44.46          42.87          5.833          18.09          106.1          30.25          172.3          131.8          125.6
   0.08544              -24.72           28.7          44.46          42.88          5.828          18.08          106.1          30.26          172.3          131.7          125.6
   0.09968              -24.72          28.69          44.46          42.88          5.823          18.08          106.1          30.27          172.3          131.7          125.5
    0.1139              -24.72          28.68          44.47          42.88          5.817          18.07          106.1          30.28          172.3          131.7          125.5
    0.1282              -24.72          28.68          44.47          42.88          5.811          18.07          106.1          30.29          172.3          131.7          125.5
    0.1424              -24.72          28.67          44.48          42.88          5.804          18.06          106.1           30.3          172.2          131.7          125.5
    0.1566              -24.72          28.66          44.49          42.88          5.797          18.05          106.1          30.31          172.2          131.6          125.5
    0.1709              -24.71          28.65          44.49          42.89          5.789          18.05          106.1          30.33          172.2          131.6          125.5
    0.1851              -24.71          28.64           44.5          42.89          5.781          18.04          106.2          30.34          172.2          131.6          125.5
    0.1994              -24.71          28.63          44.51          42.89          5.771          18.03          106.2          30.36          172.2          131.6          125.5
    0.2136              -24.71          28.61          44.51          42.89          5.761          18.02          106.2          30.37          172.2          131.5          125.5
    0.2278              -24.71           28.6          44.52           42.9          5.751          18.01          106.2          30.39          172.2          131.5          125.5
    0.2421               -24.7          28.59          44.53           42.9          5.739           18.0          106.2          30.41          172.2          131.4          125.5
    0.2563               -24.7          28.57          44.54           42.9          5.726          17.99          106.2          30.43          172.1          131.4          125.5
    0.2706               -24.7          28.55          44.55          42.91          5.712          17.97          106.2          30.46          172.1          131.4          125.4
    0.2848               -24.7          28.53          44.56          42.91          5.697          17.96          106.2          30.48          172.1          131.3          125.4
     0.299              -24.69          28.51          44.58          42.91           5.68          17.94          106.2          30.51          172.1          131.3          125.4
    0.3133              -24.69          28.49          44.59          42.92          5.661          17.92          106.3          30.54          172.1          131.2          125.4
    0.3275              -24.69          28.46          44.61          42.92           5.64          17.91          106.3          30.58          172.0          131.1          125.4
    0.3418              -24.68          28.43          44.63          42.93          5.617          17.88          106.3          30.62          172.0          131.0          125.4
     0.356              -24.68           28.4          44.65          42.94          5.591          17.86          106.3          30.66          172.0          131.0          125.3
    0.3702              -24.67          28.36          44.67          42.94          5.563          17.83          106.3          30.71          171.9          130.9          125.3
    0.3845              -24.67          28.32          44.69          42.95           5.53           17.8          106.4          30.77          171.9          130.8          125.3
    0.3987              -24.66          28.28          44.72          42.96          5.493          17.77          106.4          30.83          171.9          130.6          125.3
     0.413              -24.65          28.23          44.76          42.97          5.452          17.73          106.4           30.9          171.8          130.5          125.2
    0.4272              -24.64          28.17          44.79          42.98          5.404          17.68          106.5          30.99          171.7          130.3          125.2
    0.4414              -24.63           28.1          44.83           43.0           5.35          17.63          106.5          31.08          171.7          130.2          125.1
    0.4557              -24.62          28.02          44.88          43.01          5.287          17.57          106.6          31.19          171.6          130.0          125.1
    0.4699              -24.61          27.93          44.94          43.03          5.214           17.5          106.6          31.31          171.5          129.7          125.0
    0.4842              -24.59          27.82          45.01          43.05          5.128          17.42          106.7          31.46          171.4          129.4          124.9
    0.4984              -24.57          27.69          45.09          43.08          5.027          17.33          106.8          31.63          171.3          129.1          124.8
    0.5126              -24.55          27.54          45.18          43.11          4.907          17.22          106.9          31.84          171.1          128.7          124.7
    0.5269              -24.52          27.36          45.29          43.15          4.763          17.08          107.0          32.09          170.9          128.2          124.6
    0.5411              -24.49          27.14          45.43          43.19          4.589          16.92          107.1          32.39          170.7          127.7          124.5
    0.5554              -24.45          26.88           45.6          43.25          4.377          16.72          107.3          32.75          170.5          127.0          124.3
    0.5696              -24.41          26.55           45.8          43.31          4.115          16.47          107.5           33.2          170.1          126.1          124.0
    0.5838              -24.35          26.14          46.06           43.4          3.788          16.16          107.8          33.76          169.7          125.0          123.7
    0.5981              -24.27          25.62          46.38           43.5          3.376          15.77          108.1          34.47          169.2          123.7          123.4
